<?xml version="1.0" encoding="utf-8"?>
<!-- Generator: Adobe Illustrator 23.0.3, SVG Export Plug-In . SVG Version: 6.00 Build 0)  -->
<svg version="1.1" id="Calque_1" xmlns="http://www.w3.org/2000/svg" xmlns:xlink="http://www.w3.org/1999/xlink" x="0px" y="0px"
	 viewBox="0 0 80.2 22.9" style="enable-background:new 0 0 80.2 22.9;" xml:space="preserve">
<style type="text/css">
	.st0{display:none;}
	.st1{display:inline;fill:url(#SVGID_1_);}
	.st2{display:inline;fill:url(#SVGID_2_);}
	.st3{display:inline;fill:url(#SVGID_3_);}
	.st4{display:inline;fill:url(#SVGID_4_);}
	.st5{display:inline;fill:url(#SVGID_5_);}
	.st6{display:inline;fill:url(#SVGID_6_);}
	.st7{display:inline;fill:url(#SVGID_7_);}
	.st8{display:inline;fill:url(#SVGID_8_);}
	.st9{fill:#FFFFFF;}
	.st10{fill:url(#SVGID_9_);}
	.st11{fill:url(#SVGID_10_);}
	.st12{fill:url(#SVGID_11_);}
	.st13{fill:url(#SVGID_12_);}
	.st14{fill:url(#SVGID_13_);}
	.st15{fill:url(#SVGID_14_);}
	.st16{fill:url(#SVGID_15_);}
	.st17{fill:url(#SVGID_16_);}
</style>
<g>
	<g id="LOGO">
		<g id="TXT-logo">
			<g class="st0">
				
					<linearGradient id="SVGID_1_" gradientUnits="userSpaceOnUse" x1="67.3712" y1="8.5121" x2="68.4826" y2="13.7408" gradientTransform="matrix(1 0 0 -1 0 24.914)">
					<stop  offset="1.226990e-02" style="stop-color:#055570"/>
					<stop  offset="0.1718" style="stop-color:#0686B0"/>
					<stop  offset="0.2018" style="stop-color:#048CB9"/>
					<stop  offset="0.2948" style="stop-color:#009BCF"/>
					<stop  offset="0.385" style="stop-color:#0CA7DF"/>
					<stop  offset="0.4704" style="stop-color:#1CADE4"/>
					<stop  offset="0.546" style="stop-color:#22AFE5"/>
					<stop  offset="0.6032" style="stop-color:#12ACE4"/>
					<stop  offset="0.6602" style="stop-color:#00A0D1"/>
					<stop  offset="0.7172" style="stop-color:#048DB5"/>
					<stop  offset="0.7742" style="stop-color:#077690"/>
					<stop  offset="0.8312" style="stop-color:#005865"/>
					<stop  offset="0.8883" style="stop-color:#12393E"/>
					<stop  offset="0.9443" style="stop-color:#0D1A17"/>
					<stop  offset="1" style="stop-color:#020203"/>
				</linearGradient>
				<path class="st1" d="M64.9,10.4c0,0,1.2,3.9,5,5.2c3.8,1.3-0.8,0.6-0.8,0.6l-3,0l-0.8-0.3l-0.4-0.3
					C64.9,15.6,63.2,13.9,64.9,10.4z"/>
				
					<linearGradient id="SVGID_2_" gradientUnits="userSpaceOnUse" x1="66.7136" y1="7.3797" x2="75.5236" y2="15.3122" gradientTransform="matrix(1 0 0 -1 0 24.914)">
					<stop  offset="0.2577" style="stop-color:#22AFE5"/>
					<stop  offset="0.5092" style="stop-color:#11A6DE"/>
					<stop  offset="0.7301" style="stop-color:#22AFE5"/>
					<stop  offset="0.7825" style="stop-color:#16ADE4"/>
					<stop  offset="0.8186" style="stop-color:#0BA5D9"/>
					<stop  offset="0.8498" style="stop-color:#0095C0"/>
					<stop  offset="0.8783" style="stop-color:#0483A4"/>
					<stop  offset="0.9049" style="stop-color:#006B80"/>
					<stop  offset="0.9301" style="stop-color:#054F5B"/>
					<stop  offset="0.9542" style="stop-color:#103437"/>
					<stop  offset="0.9771" style="stop-color:#0E1815"/>
					<stop  offset="0.9989" style="stop-color:#020203"/>
					<stop  offset="1" style="stop-color:#020203"/>
				</linearGradient>
				<path class="st2" d="M76.1,10.6c-4.7,10.4-11,5-11,5s-0.2-0.1,0,0C65.8,16.3,69.6,17.4,76.1,10.6c0.1-0.1,0.1-0.1,0.2-0.2"/>
				
					<linearGradient id="SVGID_3_" gradientUnits="userSpaceOnUse" x1="79.9001" y1="13.1377" x2="72.951" y2="8.0889" gradientTransform="matrix(1 0 0 -1 0 24.914)">
					<stop  offset="1.226990e-02" style="stop-color:#5B230E"/>
					<stop  offset="0.1963" style="stop-color:#A53C17"/>
					<stop  offset="0.2477" style="stop-color:#AC4217"/>
					<stop  offset="0.3356" style="stop-color:#C25617"/>
					<stop  offset="0.4486" style="stop-color:#E57808"/>
					<stop  offset="0.4847" style="stop-color:#F08308"/>
					<stop  offset="0.6259" style="stop-color:#EE8207"/>
					<stop  offset="0.6968" style="stop-color:#E37C08"/>
					<stop  offset="0.7521" style="stop-color:#D07212"/>
					<stop  offset="0.7993" style="stop-color:#BA6416"/>
					<stop  offset="0.8414" style="stop-color:#9E5516"/>
					<stop  offset="0.8797" style="stop-color:#7C4216"/>
					<stop  offset="0.9154" style="stop-color:#583015"/>
					<stop  offset="0.9488" style="stop-color:#341F11"/>
					<stop  offset="0.9793" style="stop-color:#110D08"/>
					<stop  offset="1" style="stop-color:#020203"/>
				</linearGradient>
				<path class="st3" d="M72.6,16.3c0,0,3.9-1.2,5.2-5c1.3-3.8,0.6,0.8,0.6,0.8l0,3L78,15.9l-0.3,0.4C77.8,16.3,76.1,18,72.6,16.3z"
					/>
				
					<linearGradient id="SVGID_4_" gradientUnits="userSpaceOnUse" x1="75.6727" y1="8.7757" x2="76.0589" y2="19.8333" gradientTransform="matrix(1 0 0 -1 0 24.914)">
					<stop  offset="0" style="stop-color:#D94A1A"/>
					<stop  offset="0.1416" style="stop-color:#DD5917"/>
					<stop  offset="0.4112" style="stop-color:#EC7D0D"/>
					<stop  offset="0.5583" style="stop-color:#F39208"/>
					<stop  offset="0.6805" style="stop-color:#F09003"/>
					<stop  offset="0.7413" style="stop-color:#E58901"/>
					<stop  offset="0.7886" style="stop-color:#D27D10"/>
					<stop  offset="0.8288" style="stop-color:#BB6E15"/>
					<stop  offset="0.8647" style="stop-color:#9F5C16"/>
					<stop  offset="0.8974" style="stop-color:#7D4817"/>
					<stop  offset="0.9277" style="stop-color:#583416"/>
					<stop  offset="0.9561" style="stop-color:#342011"/>
					<stop  offset="0.982" style="stop-color:#120D08"/>
					<stop  offset="1" style="stop-color:#020203"/>
				</linearGradient>
				<path class="st4" d="M72.8,5.2c10.4,4.7,5,11,5,11s-0.1,0.2,0,0C78.4,15.4,79.5,11.6,72.8,5.2C72.8,5.1,72.7,5,72.6,5"/>
				
					<linearGradient id="SVGID_5_" gradientUnits="userSpaceOnUse" x1="75.6588" y1="22.1885" x2="75.5569" y2="16.3456" gradientTransform="matrix(1 0 0 -1 0 24.914)">
					<stop  offset="6.134970e-03" style="stop-color:#516D29"/>
					<stop  offset="0.184" style="stop-color:#849C28"/>
					<stop  offset="0.4847" style="stop-color:#C4CA26"/>
					<stop  offset="0.5422" style="stop-color:#BDC425"/>
					<stop  offset="0.6061" style="stop-color:#AEB32B"/>
					<stop  offset="0.673" style="stop-color:#95992A"/>
					<stop  offset="0.7422" style="stop-color:#787927"/>
					<stop  offset="0.813" style="stop-color:#555522"/>
					<stop  offset="0.8853" style="stop-color:#32311B"/>
					<stop  offset="0.9572" style="stop-color:#10100A"/>
					<stop  offset="1" style="stop-color:#020203"/>
				</linearGradient>
				<path class="st5" d="M78.5,8.6c0,0-1.2-3.9-5-5.2c-3.8-1.3,0.8-0.6,0.8-0.6l3,0l0.8,0.3l0.4,0.3C78.5,3.5,80.2,5.1,78.5,8.6z"/>
				
					<linearGradient id="SVGID_6_" gradientUnits="userSpaceOnUse" x1="74.1817" y1="23.336" x2="71.4448" y2="14.9125" gradientTransform="matrix(1 0 0 -1 0 24.914)">
					<stop  offset="2.453990e-02" style="stop-color:#9A9B1E"/>
					<stop  offset="2.674390e-02" style="stop-color:#9B9C1E"/>
					<stop  offset="8.529583e-02" style="stop-color:#ADB01D"/>
					<stop  offset="0.1398" style="stop-color:#B9BE21"/>
					<stop  offset="0.1883" style="stop-color:#C0C524"/>
					<stop  offset="0.2259" style="stop-color:#C4CA26"/>
					<stop  offset="0.3181" style="stop-color:#BDC325"/>
					<stop  offset="0.4136" style="stop-color:#AFB42A"/>
					<stop  offset="0.5105" style="stop-color:#989D2A"/>
					<stop  offset="0.6086" style="stop-color:#7C7E27"/>
					<stop  offset="0.7074" style="stop-color:#5B5B23"/>
					<stop  offset="0.807" style="stop-color:#37381C"/>
					<stop  offset="0.9052" style="stop-color:#181810"/>
					<stop  offset="0.9899" style="stop-color:#020203"/>
				</linearGradient>
				<path class="st6" d="M67.3,8.4c4.7-10.4,11-5,11-5s0.2,0.1,0,0C77.6,2.8,73.8,1.7,67.3,8.4c-0.1,0.1-0.1,0.1-0.2,0.2"/>
				
					<linearGradient id="SVGID_7_" gradientUnits="userSpaceOnUse" x1="63.4787" y1="17.3172" x2="69.9661" y2="23.1585" gradientTransform="matrix(1 0 0 -1 0 24.914)">
					<stop  offset="6.134970e-03" style="stop-color:#65140D"/>
					<stop  offset="0.3252" style="stop-color:#A31A18"/>
					<stop  offset="0.4701" style="stop-color:#C1171E"/>
					<stop  offset="0.5886" style="stop-color:#D51523"/>
					<stop  offset="0.655" style="stop-color:#DD1823"/>
					<stop  offset="0.7151" style="stop-color:#D91824"/>
					<stop  offset="0.7606" style="stop-color:#CF1923"/>
					<stop  offset="0.8014" style="stop-color:#BB1D21"/>
					<stop  offset="0.8394" style="stop-color:#A21E1E"/>
					<stop  offset="0.8756" style="stop-color:#841C1B"/>
					<stop  offset="0.9102" style="stop-color:#611A15"/>
					<stop  offset="0.9437" style="stop-color:#3C1711"/>
					<stop  offset="0.9755" style="stop-color:#170D08"/>
					<stop  offset="1" style="stop-color:#020203"/>
				</linearGradient>
				<path class="st7" d="M70.8,2.7c0,0-3.9,1.2-5.2,5c-1.3,3.8-0.6-0.8-0.6-0.8l0-3l0.3-0.8l0.3-0.4C65.6,2.7,67.3,1,70.8,2.7z"/>
				
					<linearGradient id="SVGID_8_" gradientUnits="userSpaceOnUse" x1="67.9839" y1="21.9168" x2="67.2262" y2="11.0806" gradientTransform="matrix(1 0 0 -1 0 24.914)">
					<stop  offset="0.2699" style="stop-color:#DD1823"/>
					<stop  offset="0.3868" style="stop-color:#D71423"/>
					<stop  offset="0.5153" style="stop-color:#CC1520"/>
					<stop  offset="0.6283" style="stop-color:#D51523"/>
					<stop  offset="0.7485" style="stop-color:#DD1823"/>
					<stop  offset="0.7927" style="stop-color:#DA1724"/>
					<stop  offset="0.8253" style="stop-color:#CF1723"/>
					<stop  offset="0.8542" style="stop-color:#BD1B22"/>
					<stop  offset="0.8809" style="stop-color:#A41E1F"/>
					<stop  offset="0.9061" style="stop-color:#851C1C"/>
					<stop  offset="0.9303" style="stop-color:#621A15"/>
					<stop  offset="0.9535" style="stop-color:#3E1711"/>
					<stop  offset="0.9755" style="stop-color:#190F09"/>
					<stop  offset="0.9941" style="stop-color:#020203"/>
				</linearGradient>
				<path class="st8" d="M70.6,13.9c-10.4-4.7-5-11-5-11s0.1-0.2,0,0C65,3.7,63.9,7.4,70.6,13.9c0.1,0.1,0.1,0.1,0.2,0.2"/>
			</g>
			<path class="st9" d="M30.8,14.3c-0.3,0.6-0.7,1.1-1.2,1.5s-1,0.7-1.6,0.9c-0.6,0.2-1.2,0.3-1.7,0.3c-0.7,0-1.3-0.1-1.9-0.4
				c-0.6-0.2-1.1-0.6-1.5-1c-0.4-0.4-0.8-0.9-1-1.5c-0.2-0.6-0.4-1.2-0.4-1.9c0-0.8,0.1-1.4,0.4-2.1C22.2,9.6,22.6,9,23,8.6
				c0.5-0.4,1-0.8,1.6-1c0.6-0.2,1.2-0.3,1.8-0.3c0.7,0,1.4,0.1,2,0.4c0.6,0.3,1.1,0.6,1.5,1s0.7,0.9,1,1.5s0.3,1.2,0.3,1.8
				C31.2,12.9,31.1,13.7,30.8,14.3z M30,10.7c-0.1-0.5-0.4-0.9-0.7-1.3c-0.3-0.4-0.7-0.7-1.2-1c-0.5-0.3-1.1-0.4-1.8-0.4
				c-0.7,0-1.2,0.1-1.7,0.3c-0.5,0.2-0.9,0.5-1.2,0.9c-0.3,0.4-0.6,0.8-0.7,1.3c-0.2,0.5-0.3,1-0.3,1.5c0,0.7,0.1,1.2,0.3,1.7
				c0.2,0.5,0.5,0.9,0.9,1.3c0.3,0.3,0.8,0.6,1.2,0.8c0.5,0.2,0.9,0.3,1.4,0.3c0.5,0,1-0.1,1.5-0.3c0.5-0.2,0.9-0.5,1.3-0.8
				c0.4-0.3,0.7-0.8,0.9-1.3c0.2-0.5,0.3-1.1,0.3-1.8C30.3,11.7,30.2,11.2,30,10.7z"/>
			<path class="st9" d="M37.3,17c-0.1,0-0.3,0-0.5-0.1c-0.2,0-0.4-0.1-0.6-0.1s-0.5-0.2-0.7-0.3c-0.2-0.1-0.5-0.3-0.6-0.5
				c-0.4-0.5-0.7-1-0.8-1.7C34,13.7,34,13,34,12.1V3h0.9v8.4c0,0.7,0,1.2,0.1,1.6c0,0.4,0.1,0.8,0.1,1.1c0.1,0.3,0.1,0.5,0.2,0.7
				c0.1,0.2,0.2,0.3,0.4,0.5c0.2,0.3,0.5,0.4,0.9,0.6c0.3,0.1,0.7,0.2,0.9,0.2L37.3,17z"/>
			<path class="st9" d="M45.4,17.2L41,11.9l-1,1v3.9H39V3H40v9h0c0.1-0.1,0.3-0.3,0.5-0.5c0.2-0.2,0.4-0.4,0.5-0.5l3.6-3.4h1.2
				l-4.1,3.8l4.7,5.4L45.4,17.2z"/>
			<path class="st9" d="M52.2,15c-0.3,0.7-0.6,1.4-0.9,1.9c-0.3,0.6-0.5,1-0.8,1.4c-0.3,0.4-0.5,0.8-0.8,1.1
				c-0.3,0.3-0.5,0.6-0.9,0.8c-0.4,0.3-0.8,0.5-1.1,0.6c-0.3,0.1-0.5,0.2-0.6,0.2l-0.3-0.8c0.2-0.1,0.5-0.2,0.8-0.3
				c0.3-0.1,0.6-0.3,0.9-0.6c0.3-0.2,0.5-0.5,0.9-0.9c0.3-0.4,0.6-0.9,0.9-1.6c0.1-0.2,0.1-0.3,0.1-0.4c0-0.1-0.1-0.2-0.1-0.4
				l-3.8-8.6h1l2.8,6.2c0.1,0.3,0.3,0.6,0.4,1c0.1,0.3,0.3,0.7,0.3,1h0c0.1-0.3,0.2-0.6,0.3-1s0.3-0.7,0.4-1.1l2.6-6.1h1L52.2,15z"
				/>
			<path class="st9" d="M3,7.6C2.7,7.7,2.3,7.7,2,7.7c-1.2,0-1.7-0.6-1.5-1.8c0.2-1.2,1-1.7,2.2-1.7c0.3,0,0.7,0.1,1,0.1L3.6,4.7
				C3.3,4.6,3,4.5,2.7,4.5c-1,0-1.5,0.5-1.7,1.4c-0.2,1,0.2,1.5,1.2,1.5c0.3,0,0.7-0.1,1-0.2L3,7.6z"/>
			<path class="st9" d="M3.7,6.4c0.2-0.9,0.7-1.3,1.4-1.3s1.1,0.4,0.9,1.3C6,7.3,5.5,7.7,4.7,7.7C3.9,7.7,3.6,7.3,3.7,6.4z M4.7,7.3
				c0.5,0,0.8-0.3,0.9-0.9c0.1-0.6-0.1-0.9-0.5-0.9S4.3,5.8,4.2,6.4C4.1,7,4.3,7.3,4.7,7.3z"/>
			<path class="st9" d="M6.6,7.7l0.5-2.6h0.4L7.3,5.9C7.7,5.4,8,5.1,8.5,5.1c0.4,0,0.6,0.3,0.5,0.7c0.3-0.5,0.7-0.7,1.2-0.7
				c0.4,0,0.6,0.3,0.5,0.8l-0.3,1.8H9.8L10.2,6c0.1-0.3,0-0.5-0.3-0.5c-0.3,0-0.7,0.3-1,0.8L8.6,7.7H8.2L8.5,6
				c0.1-0.3,0-0.5-0.3-0.5c-0.3,0-0.7,0.3-1,0.8L7,7.7L6.6,7.7z"/>
			<path class="st9" d="M11.9,5.7c0.3-0.4,0.6-0.6,1-0.6c0.6,0,0.8,0.4,0.7,1.2c-0.2,0.9-0.7,1.4-1.6,1.4c-0.2,0-0.3,0-0.5,0l-0.2,1
				h-0.5l0.7-3.5H12L11.9,5.7z M11.9,6.2l-0.2,1.1c0.1,0.1,0.2,0.1,0.4,0.1c0.6,0,0.9-0.3,1.1-1c0.1-0.5,0-0.8-0.3-0.8
				C12.5,5.5,12.1,5.7,11.9,6.2z"/>
			<path class="st9" d="M14.6,4.7h0.3l0,0.4h0.7l-0.1,0.4h-0.6L14.6,7c-0.1,0.3,0,0.4,0.3,0.4h0.3l-0.1,0.4h-0.4
				c-0.4,0-0.6-0.2-0.5-0.7L14.6,4.7z"/>
			<path class="st9" d="M18.1,5.8C18,6.3,17.6,6.5,17,6.5h-0.8c-0.1,0.5,0.1,0.8,0.6,0.8c0.4,0,0.7-0.1,1-0.3l-0.1,0.4
				c-0.3,0.2-0.6,0.3-1,0.3c-0.8,0-1.1-0.5-0.9-1.3c0.2-0.9,0.7-1.3,1.4-1.3C17.9,5.1,18.2,5.4,18.1,5.8z M16.3,6.2h0.8
				c0.3,0,0.5-0.1,0.5-0.3c0.1-0.3-0.1-0.4-0.5-0.4C16.7,5.5,16.4,5.7,16.3,6.2z"/>
		</g>
		<g id="Picto_x5F_logo">
			<circle class="st9" cx="68.4" cy="11.5" r="9.2"/>
			<path class="st9" d="M68.4,1c5.8,0,10.5,4.7,10.5,10.5s-4.7,10.5-10.5,10.5c-5.8,0-10.5-4.7-10.5-10.5S62.6,1,68.4,1 M68.4,0.5
				c-6,0-10.9,4.9-10.9,10.9s4.9,10.9,10.9,10.9c6,0,11-4.9,11-10.9C79.3,5.4,74.4,0.5,68.4,0.5L68.4,0.5z"/>
			<g>
				
					<linearGradient id="SVGID_9_" gradientUnits="userSpaceOnUse" x1="64.7517" y1="7.7062" x2="65.6809" y2="12.0779" gradientTransform="matrix(1 0 0 -1 0 24.914)">
					<stop  offset="1.226990e-02" style="stop-color:#055570"/>
					<stop  offset="0.1718" style="stop-color:#0686B0"/>
					<stop  offset="0.2018" style="stop-color:#048CB9"/>
					<stop  offset="0.2948" style="stop-color:#009BCF"/>
					<stop  offset="0.385" style="stop-color:#0CA7DF"/>
					<stop  offset="0.4704" style="stop-color:#1CADE4"/>
					<stop  offset="0.546" style="stop-color:#22AFE5"/>
					<stop  offset="0.816" style="stop-color:#9AD7F7"/>
				</linearGradient>
				<path class="st10" d="M62.7,12.2c0,0,1,3.2,4.2,4.3c3.2,1.1-0.6,0.5-0.6,0.5l-2.5,0L63,16.7l-0.4-0.3
					C62.7,16.5,61.3,15.1,62.7,12.2z"/>
				
					<linearGradient id="SVGID_10_" gradientUnits="userSpaceOnUse" x1="64.2027" y1="6.762" x2="71.5751" y2="13.4001" gradientTransform="matrix(1 0 0 -1 0 24.914)">
					<stop  offset="0.2577" style="stop-color:#22AFE5"/>
					<stop  offset="0.5092" style="stop-color:#11A6DE"/>
					<stop  offset="0.7301" style="stop-color:#22AFE5"/>
					<stop  offset="0.9448" style="stop-color:#CEEAFC"/>
				</linearGradient>
				<path class="st11" d="M72,12.4c-3.9,8.7-9.2,4.2-9.2,4.2s-0.1-0.1,0,0C63.5,17.1,66.6,18,72,12.4c0.1-0.1,0.1-0.1,0.2-0.2"/>
				
					<linearGradient id="SVGID_11_" gradientUnits="userSpaceOnUse" x1="75.2296" y1="11.566" x2="69.4222" y2="7.3467" gradientTransform="matrix(1 0 0 -1 0 24.914)">
					<stop  offset="1.226990e-02" style="stop-color:#5B230E"/>
					<stop  offset="0.1963" style="stop-color:#A53C17"/>
					<stop  offset="0.2477" style="stop-color:#AC4217"/>
					<stop  offset="0.3356" style="stop-color:#C25617"/>
					<stop  offset="0.4486" style="stop-color:#E57808"/>
					<stop  offset="0.4847" style="stop-color:#F08308"/>
					<stop  offset="0.5552" style="stop-color:#F1850B"/>
					<stop  offset="0.6328" style="stop-color:#F28C1E"/>
					<stop  offset="0.7139" style="stop-color:#F49737"/>
					<stop  offset="0.7973" style="stop-color:#F7A754"/>
					<stop  offset="0.8825" style="stop-color:#F9BB7B"/>
					<stop  offset="0.968" style="stop-color:#FCD2A8"/>
					<stop  offset="1" style="stop-color:#FDDAB9"/>
				</linearGradient>
				<path class="st12" d="M69.1,17.2c0,0,3.2-1,4.3-4.2c1.1-3.2,0.5,0.6,0.5,0.6l0,2.5l-0.2,0.7l-0.2,0.4
					C73.4,17.2,72.1,18.5,69.1,17.2z"/>
				
					<linearGradient id="SVGID_12_" gradientUnits="userSpaceOnUse" x1="71.6868" y1="7.9254" x2="72.0102" y2="17.1863" gradientTransform="matrix(1 0 0 -1 0 24.914)">
					<stop  offset="0" style="stop-color:#D94A1A"/>
					<stop  offset="0.1416" style="stop-color:#DD5917"/>
					<stop  offset="0.4112" style="stop-color:#EC7D0D"/>
					<stop  offset="0.5583" style="stop-color:#F39208"/>
					<stop  offset="0.6358" style="stop-color:#F4991C"/>
					<stop  offset="0.7884" style="stop-color:#F7A84B"/>
					<stop  offset="1" style="stop-color:#FAC18B"/>
				</linearGradient>
				<path class="st13" d="M69.3,7.8c8.7,3.9,4.2,9.2,4.2,9.2s-0.1,0.1,0,0C74,16.4,74.9,13.2,69.3,7.8c-0.1-0.1-0.1-0.1-0.2-0.2"/>
				
					<linearGradient id="SVGID_13_" gradientUnits="userSpaceOnUse" x1="71.6777" y1="19.1418" x2="71.5925" y2="14.2581" gradientTransform="matrix(1 0 0 -1 0 24.914)">
					<stop  offset="6.134970e-03" style="stop-color:#516D29"/>
					<stop  offset="0.184" style="stop-color:#849C28"/>
					<stop  offset="0.377" style="stop-color:#AFBB25"/>
					<stop  offset="0.4847" style="stop-color:#C4CA26"/>
					<stop  offset="0.5396" style="stop-color:#C4CC2F"/>
					<stop  offset="0.6195" style="stop-color:#C9CE46"/>
					<stop  offset="0.7146" style="stop-color:#CED567"/>
					<stop  offset="0.8214" style="stop-color:#D7DF93"/>
					<stop  offset="0.9367" style="stop-color:#E0EAC3"/>
					<stop  offset="0.9632" style="stop-color:#E2EDCE"/>
				</linearGradient>
				<path class="st14" d="M74.1,10.7c0,0-1-3.2-4.2-4.3s0.6-0.5,0.6-0.5l2.5,0l0.7,0.2l0.4,0.3C74.1,6.4,75.5,7.8,74.1,10.7z"/>
				
					<linearGradient id="SVGID_14_" gradientUnits="userSpaceOnUse" x1="70.454" y1="20.1032" x2="68.1664" y2="13.0625" gradientTransform="matrix(1 0 0 -1 0 24.914)">
					<stop  offset="2.453990e-02" style="stop-color:#B3B31E"/>
					<stop  offset="0.2004" style="stop-color:#C7C82B"/>
					<stop  offset="0.3252" style="stop-color:#D3D937"/>
					<stop  offset="0.6319" style="stop-color:#CCDA6F"/>
					<stop  offset="0.8528" style="stop-color:#E7EFCF"/>
				</linearGradient>
				<path class="st15" d="M64.7,10.5c3.9-8.7,9.2-4.2,9.2-4.2s0.1,0.1,0,0C73.3,5.8,70.1,4.9,64.7,10.5c-0.1,0.1-0.1,0.1-0.2,0.2"/>
				
					<linearGradient id="SVGID_15_" gradientUnits="userSpaceOnUse" x1="61.5141" y1="15.0599" x2="66.9308" y2="19.9371" gradientTransform="matrix(1 0 0 -1 0 24.914)">
					<stop  offset="6.134970e-03" style="stop-color:#65140D"/>
					<stop  offset="0.3252" style="stop-color:#A31A18"/>
					<stop  offset="0.4708" style="stop-color:#C1171E"/>
					<stop  offset="0.5898" style="stop-color:#D51523"/>
					<stop  offset="0.6564" style="stop-color:#DD1823"/>
					<stop  offset="1" style="stop-color:#F4A7A9"/>
				</linearGradient>
				<path class="st16" d="M67.6,5.8c0,0-3.2,1-4.3,4.2s-0.5-0.6-0.5-0.6l0-2.5l0.2-0.7l0.2-0.4C63.3,5.8,64.7,4.4,67.6,5.8z"/>
				
					<linearGradient id="SVGID_16_" gradientUnits="userSpaceOnUse" x1="65.2616" y1="18.9107" x2="64.6277" y2="9.8458" gradientTransform="matrix(1 0 0 -1 0 24.914)">
					<stop  offset="0.2699" style="stop-color:#DD1823"/>
					<stop  offset="0.3868" style="stop-color:#D71423"/>
					<stop  offset="0.5153" style="stop-color:#CC1520"/>
					<stop  offset="0.6283" style="stop-color:#D51523"/>
					<stop  offset="0.7485" style="stop-color:#DD1823"/>
					<stop  offset="0.9141" style="stop-color:#F4A7A9"/>
				</linearGradient>
				<path class="st17" d="M67.4,15.1c-8.7-3.9-4.2-9.2-4.2-9.2s0.1-0.1,0,0C62.8,6.5,61.8,9.7,67.4,15.1c0.1,0.1,0.1,0.1,0.2,0.2"/>
			</g>
		</g>
	</g>
	<g>
		<path class="st9" d="M0.5,17l1.2-6h2.4c1.2,0,1.7,0.5,1.5,1.6c-0.2,1.2-1.2,1.9-3,2.2l0-0.7c1.3-0.2,2-0.7,2.2-1.4
			c0.1-0.7-0.2-1-0.9-1H2.4L1.3,17L0.5,17L0.5,17z"/>
		<path class="st9" d="M5.8,17l1.2-6h2.6c1.1,0,1.6,0.5,1.4,1.4c-0.1,0.8-0.8,1.4-2,1.8l1.5,2.8h-1l-1.4-2.7l0.1-0.5
			c1.1-0.2,1.8-0.6,1.9-1.3c0.1-0.6-0.1-0.8-0.8-0.8H7.7L6.6,17L5.8,17L5.8,17z"/>
		<path class="st9" d="M11.7,14c0.4-2,1.6-3.1,3.6-3.1c2,0,2.8,1,2.4,3.1c-0.4,2-1.6,3-3.6,3C12.1,17,11.3,16,11.7,14z M14.2,16.4
			c1.4,0,2.3-0.8,2.6-2.4c0.3-1.6-0.2-2.4-1.6-2.4c-1.5,0-2.4,0.8-2.7,2.4C12.2,15.5,12.8,16.4,14.2,16.4z"/>
	</g>
</g>
</svg>
